# xmcd
#
# Track frame offsets:
# 150
# 15487
# 34442
# 49610
# 62555
# 79172
# 93670
# 111447
# 125775
# 139855
# 150790
#
# Disc length: 2170 seconds
#
#
# Revision: 0
# Processed by: cddbd v1.5.1PL0 Copyright (c) Steve Scherf et al.
# Submitted via: FreeRIP 2.931 
#
DISCID=8f08780b
DTITLE=Paralamas do Sucesso - Longo Caminho-Raro Products - Paralamas do Sucesso - Longo Caminho-Raro Products
DYEAR=1900
DGENRE=
TTITLE0=O Calibre
TTITLE1=Seguindo Estrelas
TTITLE2=Longo Caminho
TTITLE3=Soldado da Paz
TTITLE4=Cuide Bem do Seu Amor
TTITLE5=Amor em Vão
TTITLE6=Flores no Deserto
TTITLE7=Running On the Spot
TTITLE8=Flores e Espinhos
TTITLE9=La Estacion
TTITLE10=Hinchley Pond
EXTD=By DJ MP2
EXTT0=
EXTT1=
EXTT2=
EXTT3=
EXTT4=
EXTT5=
EXTT6=
EXTT7=
EXTT8=
EXTT9=
EXTT10=
PLAYORDER=
